<?xml version="1.0" encoding="UTF-8"?>
<svg xmlns="http://www.w3.org/2000/svg" xmlns:xlink="http://www.w3.org/1999/xlink" width="64px" height="64px" viewBox="0 0 64 64" version="1.1">
<g id="surface1">
<path style=" stroke:none;fill-rule:nonzero;fill:rgb(100%,100%,100%);fill-opacity:1;" d="M 32.023438 3.160156 C 19.640625 3.160156 9.566406 12.785156 9.566406 24.617188 C 9.566406 29.300781 11.113281 33.75 14.046875 37.480469 L 30.640625 58.835938 C 30.679688 58.886719 30.742188 58.90625 30.789062 58.953125 C 31.617188 59.800781 32.816406 59.585938 33.40625 58.835938 C 38.183594 52.742188 46.941406 41.363281 50.308594 37.074219 C 50.308594 37.074219 50.308594 37.070312 50.3125 37.070312 L 50.332031 37.042969 C 53.046875 33.398438 54.480469 29.105469 54.480469 24.617188 C 54.476562 12.785156 44.402344 3.160156 32.023438 3.160156 Z M 32.023438 3.160156 "/>
<path style=" stroke:none;fill-rule:nonzero;fill:rgb(98.431373%,71.764706%,18.039216%);fill-opacity:1;" d="M 32.023438 0.75 C 18.921875 0.75 8.265625 11.40625 8.265625 24.507812 C 8.265625 32.960938 10.839844 36.355469 23.199219 52.648438 C 25.347656 55.476562 27.777344 58.683594 30.558594 62.394531 C 30.90625 62.855469 31.445312 63.125 32.023438 63.125 C 32.597656 63.125 33.140625 62.855469 33.484375 62.394531 C 36.25 58.703125 38.671875 55.511719 40.808594 52.691406 C 53.203125 36.347656 55.78125 32.949219 55.78125 24.503906 C 55.777344 11.40625 45.121094 0.75 32.023438 0.75 Z M 37.898438 50.484375 C 36.140625 52.796875 34.195312 55.367188 32.023438 58.253906 C 29.835938 55.347656 27.875 52.765625 26.113281 50.441406 C 14.085938 34.589844 11.921875 31.734375 11.921875 24.507812 C 11.921875 13.421875 20.9375 4.40625 32.023438 4.40625 C 43.105469 4.40625 52.125 13.421875 52.125 24.507812 C 52.125 31.71875 49.953125 34.582031 37.898438 50.484375 Z M 37.898438 50.484375 "/>
<path style=" stroke:none;fill-rule:nonzero;fill:rgb(87.058824%,21.176471%,29.411765%);fill-opacity:1;" d="M 33.496094 12.738281 C 38.972656 13.34375 43.332031 17.667969 43.988281 23.128906 L 48.542969 23.128906 C 47.839844 15.144531 41.480469 8.785156 33.492188 8.082031 L 33.492188 12.738281 Z M 33.496094 12.738281 "/>
<path style=" stroke:none;fill-rule:nonzero;fill:rgb(35.294118%,78.431373%,31.764706%);fill-opacity:1;" d="M 20.367188 23.128906 C 21.011719 17.769531 25.21875 13.507812 30.550781 12.777344 L 30.550781 8.082031 C 22.566406 8.785156 16.207031 15.144531 15.503906 23.128906 Z M 20.367188 23.128906 "/>
<path style=" stroke:none;fill-rule:nonzero;fill:rgb(98.431373%,71.764706%,18.431373%);fill-opacity:1;" d="M 43.980469 26.074219 C 43.292969 31.5 38.949219 35.785156 33.496094 36.386719 L 33.496094 41.121094 C 41.480469 40.417969 47.839844 34.058594 48.542969 26.074219 Z M 43.980469 26.074219 "/>
<path style=" stroke:none;fill-rule:nonzero;fill:rgb(23.529412%,27.843137%,38.823529%);fill-opacity:1;" d="M 30.550781 36.347656 C 25.242188 35.621094 21.050781 31.394531 20.375 26.074219 L 15.503906 26.074219 C 16.203125 34.058594 22.566406 40.417969 30.550781 41.121094 Z M 30.550781 36.347656 "/>
</g>
</svg>
